<svg width="55" height="62" viewBox="0 0 55 62" fill="none" xmlns="http://www.w3.org/2000/svg">
<path d="M29.5 2C29.5 1.17157 28.8284 0.5 28 0.5C27.1716 0.5 26.5 1.17157 26.5 2L29.5 2ZM26.9393 45.0607C27.5251 45.6464 28.4749 45.6464 29.0607 45.0607L38.6066 35.5147C39.1924 34.9289 39.1924 33.9792 38.6066 33.3934C38.0208 32.8076 37.0711 32.8076 36.4853 33.3934L28 41.8787L19.5147 33.3934C18.9289 32.8076 17.9792 32.8076 17.3934 33.3934C16.8076 33.9792 16.8076 34.9289 17.3934 35.5147L26.9393 45.0607ZM3.5 21C3.5 20.1716 2.82843 19.5 2 19.5C1.17157 19.5 0.5 20.1716 0.5 21H3.5ZM2 60H0.5V61.5L2 61.5L2 60ZM52 61.5C52.8284 61.5 53.5 60.8284 53.5 60C53.5 59.1716 52.8284 58.5 52 58.5L52 61.5ZM51.5 60C51.5 60.8284 52.1716 61.5 53 61.5C53.8284 61.5 54.5 60.8284 54.5 60H51.5ZM54.5 21C54.5 20.1716 53.8284 19.5 53 19.5C52.1716 19.5 51.5 20.1716 51.5 21H54.5ZM2.5 19C1.67157 19 1 19.6716 1 20.5C1 21.3284 1.67157 22 2.5 22V19ZM16.5 22C17.3284 22 18 21.3284 18 20.5C18 19.6716 17.3284 19 16.5 19V22ZM39.5 19C38.6716 19 38 19.6716 38 20.5C38 21.3284 38.6716 22 39.5 22V19ZM52.5 22C53.3284 22 54 21.3284 54 20.5C54 19.6716 53.3284 19 52.5 19V22ZM26.5 2L26.5 44L29.5 44L29.5 2L26.5 2ZM0.5 21V60H3.5V21H0.5ZM2 61.5L52 61.5L52 58.5L2 58.5L2 61.5ZM54.5 60V21H51.5V60H54.5ZM2.5 22H16.5V19H2.5V22ZM39.5 22H52.5V19H39.5V22Z" fill="white"/>
</svg>
