<svg width="123" height="93" viewBox="0 0 123 93" fill="none" xmlns="http://www.w3.org/2000/svg">
<path fill-rule="evenodd" clip-rule="evenodd" d="M31.0195 31.1389C18.044 31.8685 6.87705 20.9319 6.07752 6.7115C6.00679 5.45355 5.98645 1.21863 6.07748 0L22.0051 3.77768C20.6912 15.5011 28.3343 22.6526 28.3343 22.6526C28.3343 22.6526 28.3343 14.091 32.9762 4.93232L55.6871 4.06959C54.0587 15.8017 42.2896 30.5053 31.0195 31.1389Z" fill="white"/>
<path d="M5.80976 73.648L0.000242259 59.4594C5.57064 63.0419 11.6193 64.5986 11.6193 64.5986L5.80976 73.648Z" fill="white"/>
<path d="M25.978 86.6506L15.7028 65.6069C22.5111 68.7015 29.9383 69.3205 38.6033 68.7015L25.978 86.6506Z" fill="white"/>
<path d="M59.0281 92.8399L44.1737 67.4637C54.6956 65.6069 64.5985 61.2744 71.4068 55.704L59.0281 92.8399Z" fill="white"/>
<path d="M100.497 86.6506L76.6303 52.266C96.4362 39.2684 112.875 16.0923 122.159 0L100.497 86.6506Z" fill="white"/>
</svg>
