<svg width="84" height="79" viewBox="0 0 84 79" fill="none" xmlns="http://www.w3.org/2000/svg">
<mask id="mask0_1012_11" style="mask-type:alpha" maskUnits="userSpaceOnUse" x="0" y="0" width="84" height="61">
<path d="M82.4855 4.33644e-05L83.8875 11.2792C83.8875 11.2792 59.9506 58.5063 25.878 60.8785C11.4097 61.8858 0 54.8403 0 54.8403V0L82.4855 4.33644e-05Z" fill="#D9D9D9"/>
</mask>
<g mask="url(#mask0_1012_11)">
<path d="M0.983459 71.4119H6.35145V29.4947H6.61985C10.2164 29.4947 12.471 27.2401 12.471 23.8583V11.995C12.471 8.6132 10.2164 6.35864 6.83457 6.35864H0.983459V71.4119ZM6.35145 10.8141H7.10296V24.6635H6.35145V10.8141Z" fill="white"/>
<path d="M19.4376 71.4119V6.35864H14.0696V71.4119H19.4376Z" fill="white"/>
<path d="M32.8807 71.4119V28.6358C32.8807 27.0254 32.3439 25.6297 31.4313 24.6635C32.3439 23.6972 32.8807 22.3552 32.8807 20.7449V11.995C32.8807 8.6132 30.6261 6.35864 27.2443 6.35864H21.3932V71.4119H26.7612V27.0791H27.5127V71.4119H32.8807ZM26.7612 10.8141H27.5127V22.2479H26.7612V10.8141Z" fill="white"/>
<path d="M39.1341 71.4119V31.5345H40.0466V71.4119H45.4146L43.9653 6.35864H35.2154L33.7661 71.4119H39.1341ZM39.3488 10.8141H39.8856L40.0466 27.0791H39.1341L39.3488 10.8141Z" fill="white"/>
<path d="M58.344 71.4119V6.35864H52.976V15.2158L53.9959 27.0254H53.2444L51.4729 6.35864H46.1049V71.4119H51.4729L51.0435 35.5951L50.292 22.1942H51.0435L52.976 71.4119H58.344Z" fill="white"/>
<path d="M65.8446 71.4119V27.0791H66.5961V71.4119H71.9641V6.35864H66.5961V22.2479H65.8446V6.35864H60.4766V71.4119H65.8446Z" fill="white"/>
<path d="M78.0319 71.4119V31.5345H78.9445V71.4119H84.3124L82.8631 6.35864H74.1133L72.6639 71.4119H78.0319ZM78.2466 10.8141H78.7834L78.9445 27.0791H78.0319L78.2466 10.8141Z" fill="white"/>
</g>
<path d="M4.73988 65.8293L0.829326 56.2786C4.57893 58.6901 8.65044 59.7379 8.65044 59.7379L4.73988 65.8293Z" fill="white"/>
<path d="M18.3158 74.5818L11.3992 60.4166C15.982 62.4997 20.9815 62.9163 26.8142 62.4997L18.3158 74.5818Z" fill="white"/>
<path d="M40.5628 78.748L30.5638 61.6665C37.6464 60.4166 44.3124 57.5003 48.8952 53.7507L40.5628 78.748Z" fill="white"/>
<path d="M68.4765 74.5818L52.4114 51.4364C65.7433 42.6874 76.8089 27.0868 83.0583 16.2546L68.4765 74.5818Z" fill="white"/>
</svg>
