<svg width="1440" height="320" viewBox="0 0 1440 320" fill="none" xmlns="http://www.w3.org/2000/svg">
<path d="M0 32L34.3 58.7C68.6 85 137 139 206 149.3C274.3 160 343 128 411 101.3C480 75 549 53 617 48C685.7 43 754 53 823 96C891.4 139 960 213 1029 250.7C1097.1 288 1166 288 1234 272C1302.9 256 1371 224 1406 208L1440 192V0H1405.7C1371.4 0 1303 0 1234 0C1165.7 0 1097 0 1029 0C960 0 891 0 823 0C754.3 0 686 0 617 0C548.6 0 480 0 411 0C342.9 0 274 0 206 0C137.1 0 69 0 34 0H0V32Z" fill="#A892FF"/>
</svg>
